<svg xmlns="http://www.w3.org/2000/svg" aria-hidden="true" viewBox="0 0 410 404" width="32" height="32"><path d="M399.641 59.5246L215.643 388.545C211.844 395.338 202.084 395.378 198.228 388.618L10.5817 59.5563C6.38087 52.1896 12.6802 43.2665 21.0281 44.7586L205.223 77.6824C206.398 77.8924 207.601 77.8904 208.776 77.6763L389.119 44.8058C397.439 43.2894 403.768 52.1434 399.641 59.5246Z" fill="url(#paint0_linear)"/><path d="M292.965 1.5744L156.801 28.2552C154.563 28.6937 152.906 30.5903 152.771 32.8664L144.395 174.33C144.197 177.685 147.275 180.295 150.55 179.548L188.466 170.8C192.037 169.976 195.26 173.124 194.498 176.709L183.231 229.832C182.439 233.563 185.952 236.749 189.622 235.721L213.057 229.155C216.732 228.126 220.248 231.318 219.448 235.053L201.534 318.768C200.366 324.23 207.627 327.198 210.579 322.45L212.547 319.286L323.604 97.2237C325.485 93.4625 322.234 89.1709 318.097 89.9633L279.072 97.4423C275.359 98.1547 272.207 94.6837 273.255 91.0511L298.731 2.6189C299.781 -1.0207 296.624 -0.501803 292.965 1.5744Z" fill="url(#paint1_linear)"/><defs><linearGradient id="paint0_linear" x1="6.00017" y1="32.9999" x2="235" y2="344" gradientUnits="userSpaceOnUse"><stop stop-color="#41D1FF"/><stop offset="1" stop-color="#BD34FE"/></linearGradient><linearGradient id="paint1_linear" x1="194.651" y1="8.81818" x2="236.076" y2="292.989" gradientUnits="userSpaceOnUse"><stop stop-color="#FFEA83"/><stop offset="0.0833333" stop-color="#FFDD35"/><stop offset="1" stop-color="#FFA800"/></linearGradient></defs></svg>
